# xmcd CD database file
#
# Track frame offsets:
#	150
#	17650
#	32690
#	64460
#	101102
#	132290
#	142510
#	157767
#
# Disc length: 2463 seconds
#
# Revision: 0
# Processed by: cddbd v1.5.1PL0 Copyright (c) Steve Scherf et al.
# Submitted via: CDex 1.51
#
DISCID=5f099d08
DTITLE=Slim Gaillard - Anytime, Anyplace, Anywhere!
DYEAR=1982
DGENRE=Jazz
TTITLE0=How High the Moon
TTITLE1=Anytime, Anyplace, Anywhere
TTITLE2=I Can't Get Started
TTITLE3=Slim's Jam No. 2
TTITLE4=Everything's OK in the UK
TTITLE5=The Music Goes Round and Round
TTITLE6=Satin Doll
TTITLE7=Honeysuckle Rose
EXTD=YEAR: 1982
EXTT0=
EXTT1=
EXTT2=
EXTT3=
EXTT4=
EXTT5=
EXTT6=
EXTT7=
PLAYORDER=
